<svg width="350" height="314" viewBox="0 0 350 314" fill="none" xmlns="http://www.w3.org/2000/svg">
<path d="M234 114.346C234 178.772 181.617 231 117 231C52.3827 231 0 178.772 0 114.346C0 49.9194 75.2031 19 139.82 19C204.438 19 234 49.9194 234 114.346Z" fill="white" fill-opacity="0.2"/>
<path d="M350 114.346C350 178.772 297.617 231 233 231C168.383 231 116 178.772 116 114.346C116 49.9194 191.203 19 255.82 19C320.438 19 350 49.9194 350 114.346Z" fill="white" fill-opacity="0.2"/>
<path d="M350 196.346C350 260.772 297.617 313 233 313C168.383 313 116 260.772 116 196.346C116 131.919 191.203 101 255.82 101C320.438 101 350 131.919 350 196.346Z" fill="white" fill-opacity="0.2"/>
<path d="M337 151C337 240.194 264.694 312.5 175.5 312.5C86.306 312.5 14 240.194 14 151C14 61.8059 117.806 19 207 19C296.194 19 337 61.8059 337 151Z" fill="white" fill-opacity="0.9"/>
<g filter="url(#filter0_d_2_25365)">
<rect x="202.668" y="65.167" width="62.2226" height="63.1115" rx="16" fill="white" fill-opacity="0.2" shape-rendering="crispEdges"/>
<path d="M218.958 101.877C218.613 101.877 218.342 101.779 218.146 101.583C217.95 101.377 217.852 101.088 217.852 100.715C217.852 100.369 217.955 100.089 218.16 99.8747C218.365 99.6507 218.631 99.5387 218.958 99.5387C219.313 99.5387 219.583 99.6413 219.77 99.8467C219.966 100.052 220.064 100.341 220.064 100.715C220.064 101.051 219.961 101.331 219.756 101.555C219.56 101.769 219.294 101.877 218.958 101.877Z" fill="#4660F1"/>
<path d="M224.882 101.863C224.182 101.863 223.552 101.695 222.992 101.359C222.441 101.023 222.002 100.565 221.676 99.9867C221.358 99.408 221.2 98.75 221.2 98.0127C221.2 97.2847 221.358 96.6313 221.676 96.0527C222.002 95.474 222.441 95.0167 222.992 94.6807C223.552 94.3447 224.182 94.1767 224.882 94.1767C225.544 94.1767 226.146 94.298 226.688 94.5407C227.238 94.7833 227.668 95.124 227.976 95.5627L226.926 96.8227C226.73 96.552 226.459 96.3233 226.114 96.1367C225.768 95.9407 225.418 95.8427 225.064 95.8427C224.672 95.8427 224.322 95.9407 224.014 96.1367C223.715 96.3233 223.477 96.58 223.3 96.9067C223.132 97.2333 223.048 97.602 223.048 98.0127C223.048 98.4233 223.136 98.792 223.314 99.1187C223.491 99.4453 223.734 99.7067 224.042 99.9027C224.35 100.089 224.695 100.183 225.078 100.183C225.442 100.183 225.778 100.103 226.086 99.9447C226.394 99.7767 226.674 99.5433 226.926 99.2447L227.976 100.505C227.658 100.915 227.22 101.247 226.66 101.499C226.1 101.741 225.507 101.863 224.882 101.863ZM232.68 101.863C231.924 101.863 231.252 101.699 230.664 101.373C230.076 101.037 229.614 100.579 229.278 100.001C228.942 99.422 228.774 98.7593 228.774 98.0127C228.774 97.2753 228.942 96.6173 229.278 96.0387C229.614 95.46 230.076 95.0073 230.664 94.6807C231.252 94.3447 231.924 94.1767 232.68 94.1767C233.417 94.1767 234.08 94.3447 234.668 94.6807C235.256 95.0073 235.718 95.46 236.054 96.0387C236.39 96.6173 236.558 97.2753 236.558 98.0127C236.558 98.7593 236.39 99.422 236.054 100.001C235.718 100.579 235.256 101.037 234.668 101.373C234.08 101.699 233.417 101.863 232.68 101.863ZM232.68 100.197C233.053 100.197 233.389 100.103 233.688 99.9167C233.987 99.7207 234.215 99.4593 234.374 99.1327C234.542 98.806 234.626 98.4327 234.626 98.0127C234.626 97.5927 234.542 97.2193 234.374 96.8927C234.215 96.566 233.987 96.3093 233.688 96.1227C233.389 95.936 233.053 95.8427 232.68 95.8427C232.297 95.8427 231.957 95.936 231.658 96.1227C231.359 96.3093 231.126 96.566 230.958 96.8927C230.79 97.2193 230.706 97.5927 230.706 98.0127C230.706 98.4327 230.79 98.806 230.958 99.1327C231.126 99.4593 231.359 99.7207 231.658 99.9167C231.957 100.103 232.297 100.197 232.68 100.197ZM238.054 101.723V94.3307H239.902L239.93 95.3807C240.192 95.026 240.518 94.7413 240.91 94.5267C241.302 94.3027 241.713 94.1907 242.142 94.1907C242.674 94.1907 243.118 94.3073 243.472 94.5407C243.827 94.7647 244.116 95.124 244.34 95.6187C244.611 95.18 244.975 94.8347 245.432 94.5827C245.899 94.3213 246.38 94.1907 246.874 94.1907C248.564 94.1907 249.408 95.208 249.408 97.2427V101.723H247.49V97.3827C247.49 96.356 247.07 95.8427 246.23 95.8427C245.782 95.8427 245.409 95.9827 245.11 96.2627C244.821 96.5427 244.676 96.8927 244.676 97.3127V101.723H242.758V97.3547C242.758 96.8693 242.651 96.496 242.436 96.2347C242.222 95.9733 241.914 95.8427 241.512 95.8427C241.074 95.8427 240.705 95.9827 240.406 96.2627C240.117 96.5427 239.972 96.8833 239.972 97.2847V101.723H238.054Z" fill="#11142F"/>
</g>
<g filter="url(#filter1_d_2_25365)">
<rect x="153" y="185.5" width="63.1115" height="63.1115" rx="16" fill="white" fill-opacity="0.2" shape-rendering="crispEdges"/>
<path d="M178.088 222.21C177.743 222.21 177.472 222.112 177.276 221.916C177.08 221.71 176.982 221.421 176.982 221.048C176.982 220.702 177.085 220.422 177.29 220.208C177.495 219.984 177.761 219.872 178.088 219.872C178.443 219.872 178.713 219.974 178.9 220.18C179.096 220.385 179.194 220.674 179.194 221.048C179.194 221.384 179.091 221.664 178.886 221.888C178.69 222.102 178.424 222.21 178.088 222.21Z" fill="#4660F1"/>
<path d="M181.968 213.124C181.594 213.124 181.3 213.03 181.086 212.844C180.88 212.657 180.778 212.4 180.778 212.074C180.778 211.756 180.88 211.5 181.086 211.304C181.3 211.108 181.594 211.01 181.968 211.01C182.341 211.01 182.63 211.103 182.836 211.29C183.041 211.476 183.144 211.738 183.144 212.074C183.144 212.382 183.036 212.634 182.822 212.83C182.616 213.026 182.332 213.124 181.968 213.124ZM181.016 222.056V214.664H182.934V222.056H181.016ZM185.071 222.056V214.664H186.919L186.947 215.658C187.199 215.322 187.535 215.046 187.955 214.832C188.375 214.617 188.814 214.51 189.271 214.51C190.97 214.51 191.819 215.518 191.819 217.534V222.056H189.915V217.674C189.915 216.619 189.472 216.11 188.585 216.148C188.128 216.148 187.745 216.288 187.437 216.568C187.138 216.848 186.989 217.193 186.989 217.604V222.056H185.071Z" fill="#11142F"/>
</g>
<g filter="url(#filter2_d_2_25365)">
<rect x="131.556" y="44.7222" width="63.1115" height="62.2226" rx="16" fill="white" fill-opacity="0.2" shape-rendering="crispEdges"/>
<path d="M148.448 80.9875C148.102 80.9875 147.832 80.8895 147.636 80.6935C147.44 80.4882 147.342 80.1988 147.342 79.8255C147.342 79.4802 147.444 79.2002 147.65 78.9855C147.855 78.7615 148.121 78.6495 148.448 78.6495C148.802 78.6495 149.073 78.7522 149.26 78.9575C149.456 79.1628 149.554 79.4522 149.554 79.8255C149.554 80.1615 149.451 80.4415 149.246 80.6655C149.05 80.8802 148.784 80.9875 148.448 80.9875Z" fill="#4660F1"/>
<path d="M154.371 80.9735C153.671 80.9735 153.041 80.8055 152.481 80.4695C151.931 80.1335 151.492 79.6762 151.165 79.0975C150.848 78.5188 150.689 77.8608 150.689 77.1235C150.689 76.3955 150.848 75.7422 151.165 75.1635C151.492 74.5848 151.931 74.1275 152.481 73.7915C153.041 73.4555 153.671 73.2875 154.371 73.2875C155.034 73.2875 155.636 73.4088 156.177 73.6515C156.728 73.8942 157.157 74.2348 157.465 74.6735L156.415 75.9335C156.219 75.6628 155.949 75.4342 155.603 75.2475C155.258 75.0515 154.908 74.9535 154.553 74.9535C154.161 74.9535 153.811 75.0515 153.503 75.2475C153.205 75.4342 152.967 75.6908 152.789 76.0175C152.621 76.3442 152.537 76.7128 152.537 77.1235C152.537 77.5342 152.626 77.9028 152.803 78.2295C152.981 78.5562 153.223 78.8175 153.531 79.0135C153.839 79.2002 154.185 79.2935 154.567 79.2935C154.931 79.2935 155.267 79.2142 155.575 79.0555C155.883 78.8875 156.163 78.6542 156.415 78.3555L157.465 79.6155C157.148 80.0262 156.709 80.3575 156.149 80.6095C155.589 80.8522 154.997 80.9735 154.371 80.9735ZM162.17 80.9735C161.414 80.9735 160.742 80.8102 160.154 80.4835C159.566 80.1475 159.104 79.6902 158.768 79.1115C158.432 78.5328 158.264 77.8702 158.264 77.1235C158.264 76.3862 158.432 75.7282 158.768 75.1495C159.104 74.5708 159.566 74.1182 160.154 73.7915C160.742 73.4555 161.414 73.2875 162.17 73.2875C162.907 73.2875 163.57 73.4555 164.158 73.7915C164.746 74.1182 165.208 74.5708 165.544 75.1495C165.88 75.7282 166.048 76.3862 166.048 77.1235C166.048 77.8702 165.88 78.5328 165.544 79.1115C165.208 79.6902 164.746 80.1475 164.158 80.4835C163.57 80.8102 162.907 80.9735 162.17 80.9735ZM162.17 79.3075C162.543 79.3075 162.879 79.2142 163.178 79.0275C163.476 78.8315 163.705 78.5702 163.864 78.2435C164.032 77.9168 164.116 77.5435 164.116 77.1235C164.116 76.7035 164.032 76.3302 163.864 76.0035C163.705 75.6768 163.476 75.4202 163.178 75.2335C162.879 75.0468 162.543 74.9535 162.17 74.9535C161.787 74.9535 161.446 75.0468 161.148 75.2335C160.849 75.4202 160.616 75.6768 160.448 76.0035C160.28 76.3302 160.196 76.7035 160.196 77.1235C160.196 77.5435 160.28 77.9168 160.448 78.2435C160.616 78.5702 160.849 78.8315 161.148 79.0275C161.446 79.2142 161.787 79.3075 162.17 79.3075ZM168.72 71.9015C168.347 71.9015 168.053 71.8082 167.838 71.6215C167.633 71.4348 167.53 71.1782 167.53 70.8515C167.53 70.5342 167.633 70.2775 167.838 70.0815C168.053 69.8855 168.347 69.7875 168.72 69.7875C169.093 69.7875 169.383 69.8808 169.588 70.0675C169.793 70.2542 169.896 70.5155 169.896 70.8515C169.896 71.1595 169.789 71.4115 169.574 71.6075C169.369 71.8035 169.084 71.9015 168.72 71.9015ZM167.768 80.8335V73.4415H169.686V80.8335H167.768ZM171.824 80.8335V73.4415H173.672L173.7 74.4355C173.952 74.0995 174.288 73.8242 174.708 73.6095C175.128 73.3948 175.566 73.2875 176.024 73.2875C177.722 73.2875 178.572 74.2955 178.572 76.3115V80.8335H176.668V76.4515C176.668 75.3968 176.224 74.8882 175.338 74.9255C174.88 74.9255 174.498 75.0655 174.19 75.3455C173.891 75.6255 173.742 75.9708 173.742 76.3815V80.8335H171.824Z" fill="#11142F"/>
</g>
<g filter="url(#filter3_d_2_25365)">
<rect x="60.4448" y="66.0557" width="63.1115" height="62.2226" rx="16" fill="white" fill-opacity="0.2" shape-rendering="crispEdges"/>
<path d="M80.8227 102.321C80.4774 102.321 80.2067 102.223 80.0107 102.027C79.8147 101.822 79.7167 101.532 79.7167 101.159C79.7167 100.814 79.8194 100.534 80.0247 100.319C80.2301 100.095 80.4961 99.983 80.8227 99.983C81.1774 99.983 81.4481 100.086 81.6347 100.291C81.8307 100.496 81.9287 100.786 81.9287 101.159C81.9287 101.495 81.8261 101.775 81.6207 101.999C81.4247 102.214 81.1587 102.321 80.8227 102.321Z" fill="#4660F1"/>
<path d="M87.0404 102.307C86.2471 102.307 85.5517 102.144 84.9544 101.817C84.3571 101.49 83.8904 101.042 83.5544 100.473C83.2277 99.9037 83.0644 99.2503 83.0644 98.513C83.0644 97.7477 83.2231 97.0757 83.5404 96.497C83.8671 95.909 84.3104 95.447 84.8704 95.111C85.4397 94.775 86.0931 94.607 86.8304 94.607C87.4931 94.607 88.0857 94.7703 88.6084 95.097C89.1404 95.4143 89.5511 95.8483 89.8404 96.399C90.1391 96.9497 90.2791 97.5797 90.2604 98.289L90.2464 98.891H84.9264C85.0291 99.423 85.2811 99.843 85.6824 100.151C86.0931 100.459 86.6111 100.613 87.2364 100.613C87.5724 100.613 87.8757 100.562 88.1464 100.459C88.4264 100.356 88.7251 100.174 89.0424 99.913L89.9664 101.201C89.5651 101.556 89.1031 101.831 88.5804 102.027C88.0671 102.214 87.5537 102.307 87.0404 102.307ZM86.8444 96.259C85.7897 96.259 85.1551 96.735 84.9404 97.687H88.4404V97.631C88.4124 97.2297 88.2444 96.903 87.9364 96.651C87.6377 96.3897 87.2737 96.259 86.8444 96.259ZM92.4855 102.167V96.497H91.0855V94.775H92.4855V92.885H94.3895V94.775H95.9435V96.497H94.3895V102.167H92.4855ZM97.2259 102.167V91.807H99.1159V95.741C99.3679 95.4143 99.6993 95.1483 100.11 94.943C100.53 94.7283 100.969 94.621 101.426 94.621C103.125 94.621 103.974 95.629 103.974 97.645V102.167H102.07V97.785C102.07 96.7303 101.627 96.2217 100.74 96.259C100.283 96.259 99.8999 96.399 99.5919 96.679C99.2933 96.959 99.1439 97.3043 99.1439 97.715V102.167H97.2259Z" fill="#11142F"/>
</g>
<g filter="url(#filter4_d_2_25365)">
<rect x="224" y="144" width="62.2226" height="63.1115" rx="16" fill="white" fill-opacity="0.2" shape-rendering="crispEdges"/>
<path d="M232.415 180.71C232.07 180.71 231.799 180.612 231.603 180.416C231.407 180.21 231.309 179.921 231.309 179.548C231.309 179.202 231.412 178.922 231.617 178.708C231.822 178.484 232.088 178.372 232.415 178.372C232.77 178.372 233.04 178.474 233.227 178.68C233.423 178.885 233.521 179.174 233.521 179.548C233.521 179.884 233.418 180.164 233.213 180.388C233.017 180.602 232.751 180.71 232.415 180.71Z" fill="#4660F1"/>
<path d="M238.339 180.696C237.639 180.696 237.009 180.528 236.449 180.192C235.898 179.856 235.459 179.398 235.133 178.82C234.815 178.241 234.657 177.583 234.657 176.846C234.657 176.118 234.815 175.464 235.133 174.886C235.459 174.307 235.898 173.85 236.449 173.514C237.009 173.178 237.639 173.01 238.339 173.01C239.001 173.01 239.603 173.131 240.145 173.374C240.695 173.616 241.125 173.957 241.433 174.396L240.383 175.656C240.187 175.385 239.916 175.156 239.571 174.97C239.225 174.774 238.875 174.676 238.521 174.676C238.129 174.676 237.779 174.774 237.471 174.97C237.172 175.156 236.934 175.413 236.757 175.74C236.589 176.066 236.505 176.435 236.505 176.846C236.505 177.256 236.593 177.625 236.771 177.952C236.948 178.278 237.191 178.54 237.499 178.736C237.807 178.922 238.152 179.016 238.535 179.016C238.899 179.016 239.235 178.936 239.543 178.778C239.851 178.61 240.131 178.376 240.383 178.078L241.433 179.338C241.115 179.748 240.677 180.08 240.117 180.332C239.557 180.574 238.964 180.696 238.339 180.696ZM242.707 180.556V173.164H244.555L244.583 174.382C244.826 173.98 245.143 173.654 245.535 173.402C245.936 173.14 246.356 173.01 246.795 173.01C246.963 173.01 247.117 173.024 247.257 173.052C247.406 173.07 247.532 173.098 247.635 173.136L247.117 175.236C247.014 175.18 246.884 175.133 246.725 175.096C246.566 175.058 246.408 175.04 246.249 175.04C245.792 175.04 245.404 175.198 245.087 175.516C244.779 175.824 244.625 176.216 244.625 176.692V180.556H242.707ZM249.828 183.776L251.2 180.598L247.84 173.164H250.01L251.886 177.588C251.97 177.784 252.054 178.012 252.138 178.274C252.175 178.171 252.208 178.073 252.236 177.98C252.273 177.877 252.31 177.77 252.348 177.658L253.958 173.164H256.156L253.048 180.556L251.774 183.776H249.828ZM257.213 183.636V173.164H259.061L259.089 174.06C259.331 173.761 259.663 173.514 260.083 173.318C260.503 173.122 260.946 173.024 261.413 173.024C262.057 173.024 262.631 173.187 263.135 173.514C263.639 173.84 264.035 174.293 264.325 174.872C264.614 175.45 264.759 176.108 264.759 176.846C264.759 177.583 264.614 178.241 264.325 178.82C264.035 179.398 263.639 179.856 263.135 180.192C262.631 180.518 262.057 180.682 261.413 180.682C260.974 180.682 260.549 180.593 260.139 180.416C259.728 180.229 259.397 179.996 259.145 179.716V183.636H257.213ZM260.993 179.03C261.562 179.03 262.024 178.829 262.379 178.428C262.733 178.017 262.911 177.49 262.911 176.846C262.911 176.211 262.733 175.693 262.379 175.292C262.024 174.881 261.562 174.676 260.993 174.676C260.423 174.676 259.961 174.876 259.607 175.278C259.252 175.679 259.075 176.202 259.075 176.846C259.075 177.49 259.252 178.017 259.607 178.428C259.961 178.829 260.423 179.03 260.993 179.03ZM267.019 180.556V174.886H265.619V173.164H267.019V171.274H268.923V173.164H270.477V174.886H268.923V180.556H267.019ZM275.121 180.696C274.365 180.696 273.693 180.532 273.105 180.206C272.517 179.87 272.055 179.412 271.719 178.834C271.383 178.255 271.215 177.592 271.215 176.846C271.215 176.108 271.383 175.45 271.719 174.872C272.055 174.293 272.517 173.84 273.105 173.514C273.693 173.178 274.365 173.01 275.121 173.01C275.859 173.01 276.521 173.178 277.109 173.514C277.697 173.84 278.159 174.293 278.495 174.872C278.831 175.45 278.999 176.108 278.999 176.846C278.999 177.592 278.831 178.255 278.495 178.834C278.159 179.412 277.697 179.87 277.109 180.206C276.521 180.532 275.859 180.696 275.121 180.696ZM275.121 179.03C275.495 179.03 275.831 178.936 276.129 178.75C276.428 178.554 276.657 178.292 276.815 177.966C276.983 177.639 277.067 177.266 277.067 176.846C277.067 176.426 276.983 176.052 276.815 175.726C276.657 175.399 276.428 175.142 276.129 174.956C275.831 174.769 275.495 174.676 275.121 174.676C274.739 174.676 274.398 174.769 274.099 174.956C273.801 175.142 273.567 175.399 273.399 175.726C273.231 176.052 273.147 176.426 273.147 176.846C273.147 177.266 273.231 177.639 273.399 177.966C273.567 178.292 273.801 178.554 274.099 178.75C274.398 178.936 274.739 179.03 275.121 179.03Z" fill="#11142F"/>
</g>
<g filter="url(#filter5_d_2_25365)">
<rect x="136.001" y="115.834" width="62.2226" height="63.1115" rx="16" fill="white" fill-opacity="0.2" shape-rendering="crispEdges"/>
<path d="M157.268 152.544C156.922 152.544 156.652 152.446 156.456 152.25C156.26 152.044 156.162 151.755 156.162 151.382C156.162 151.036 156.264 150.756 156.47 150.542C156.675 150.318 156.941 150.206 157.268 150.206C157.622 150.206 157.893 150.308 158.08 150.514C158.276 150.719 158.374 151.008 158.374 151.382C158.374 151.718 158.271 151.998 158.066 152.222C157.87 152.436 157.604 152.544 157.268 152.544Z" fill="#4660F1"/>
<path d="M159.985 152.39V144.998H161.833L161.861 145.992C162.113 145.656 162.449 145.38 162.869 145.166C163.289 144.951 163.728 144.844 164.185 144.844C165.884 144.844 166.733 145.852 166.733 147.868V152.39H164.829V148.008C164.829 146.953 164.386 146.444 163.499 146.482C163.042 146.482 162.659 146.622 162.351 146.902C162.053 147.182 161.903 147.527 161.903 147.938V152.39H159.985ZM169.256 152.39V146.804H168.122V145.166H169.256V144.438C169.256 143.98 169.354 143.57 169.55 143.206C169.746 142.832 170.021 142.543 170.376 142.338C170.74 142.123 171.16 142.016 171.636 142.016C171.962 142.016 172.266 142.072 172.546 142.184C172.826 142.286 173.068 142.431 173.274 142.618L172.7 144.032C172.578 143.948 172.452 143.882 172.322 143.836C172.2 143.78 172.084 143.752 171.972 143.752C171.44 143.752 171.174 144.018 171.174 144.55V145.166H172.784V146.804H171.174V152.39H169.256ZM174.919 152.39V146.72H173.519V144.998H174.919V143.108H176.823V144.998H178.377V146.72H176.823V152.39H174.919Z" fill="#11142F"/>
</g>
<path d="M37.9706 222.078C37.9706 223.797 37.0341 225.296 35.6446 226.094L35.2352 225.253C34.0927 222.906 34.075 220.177 35.17 217.826C36.8169 218.534 37.9706 220.172 37.9706 222.078Z" fill="#F9AFAB"/>
<path d="M87.6498 180.244L86.2733 177.56C86.6498 175.351 86.8098 172.95 86.6835 170.376C86.6554 169.794 86.6119 169.204 86.5532 168.605C83.6819 168.86 75.2561 169.197 69.0589 165.265C69.5158 168.915 68.1514 172.96 65.8899 176.37C65.6155 175.712 64.6284 173.676 62.9276 173.676C59.5253 173.676 59.0104 179.113 60.9131 181.703C59.5993 182.679 58.2235 183.415 56.8607 183.825C56.8607 183.825 56.855 183.819 56.8462 183.81V199.462H70.0404V192.642C71.8144 193.293 73.3896 193.667 74.5007 193.667C77.8218 193.667 82.8556 189.213 85.2974 181.58H86.8332C87.3393 181.58 87.7495 181.17 87.7495 180.664C87.7512 180.517 87.7166 180.373 87.6498 180.244Z" fill="#FCBEB7"/>
<path d="M60.9134 181.703C59.0107 179.113 59.5256 173.676 62.928 173.676C64.6279 173.676 65.6151 175.712 65.8902 176.37C68.1517 172.96 69.5162 168.915 69.0592 165.265C75.2573 169.198 83.6822 168.86 86.5536 168.605C86.6123 169.204 86.6558 169.795 86.6839 170.376C86.9325 170.14 87.5158 169.484 87.5576 168.496C87.5592 168.496 87.5601 168.496 87.5601 168.496C87.5601 168.468 87.56 168.44 87.5592 168.412C87.5592 168.403 87.5601 168.395 87.5601 168.386C87.5601 168.381 87.5592 168.376 87.5592 168.371C87.4836 162.736 82.325 153.167 69.7374 153.167C56.3993 153.167 53.9044 161.851 53.9044 161.851C53.9044 161.851 49.313 164.367 49.313 169.439C49.313 176.103 56.4974 183.457 56.8466 183.811C56.8554 183.82 56.861 183.826 56.861 183.826C58.2239 183.415 59.5996 182.679 60.9134 181.703Z" fill="#311643"/>
<path d="M70.0413 199.462V192.642C66.3783 191.297 61.8682 188.767 58.8472 185.892L70.0413 199.462Z" fill="#F9AFAB"/>
<path d="M72.2229 183.205C74.1984 183.205 75.7998 181.604 75.7998 179.628C75.7998 177.653 74.1984 176.051 72.2229 176.051C70.2474 176.051 68.646 177.653 68.646 179.628C68.646 181.604 70.2474 183.205 72.2229 183.205Z" fill="#F49795"/>
<path d="M79.8697 185.158C79.1505 185.158 78.659 184.885 78.3605 184.637C77.9888 184.328 77.8327 183.996 77.8158 183.959C77.741 183.793 77.815 183.598 77.9807 183.523C78.1456 183.448 78.3404 183.521 78.4152 183.686C78.4353 183.73 78.877 184.629 80.1433 184.482C80.3235 184.461 80.4876 184.591 80.5085 184.772C80.5295 184.953 80.3999 185.116 80.2189 185.137C80.0974 185.151 79.9808 185.158 79.8697 185.158Z" fill="#311643"/>
<path d="M81.8869 175.246C81.4903 175.246 81.1685 174.924 81.1685 174.528V173.186C81.1685 172.789 81.4903 172.467 81.8869 172.467C82.2835 172.467 82.6053 172.789 82.6053 173.186V174.528C82.6053 174.924 82.2835 175.246 81.8869 175.246Z" fill="#311643"/>
<path d="M86.7351 173.527H84.517V169.438C84.517 169.256 84.3698 169.108 84.1879 169.108C84.0061 169.108 83.8589 169.256 83.8589 169.438V178.276C83.8589 178.458 84.0061 178.605 84.1879 178.605C84.3698 178.605 84.517 178.458 84.517 178.276V174.186H86.7351C86.9169 174.186 87.0641 174.039 87.0641 173.857C87.0641 173.675 86.9169 173.527 86.7351 173.527Z" fill="white"/>
<path d="M108.542 226.441L71.4156 240.903L60.454 255.493C58.7645 257.742 56.3799 259.325 53.7129 260.029L69.9562 271.213L101.039 254.859L99.759 294.569H113.703L125.357 240.79C127.476 231.014 117.862 222.811 108.542 226.441Z" fill="#6277D7"/>
<path d="M99.7593 300.175V310.028C99.7593 311.176 100.691 312.108 101.84 312.108H129.784C130.05 312.108 130.265 311.892 130.265 311.627V309.811C130.265 308.935 129.754 308.139 128.958 307.774L112.363 300.175H99.7593Z" fill="#2F3D6C"/>
<path d="M99.7593 294.569V300.175H112.363L113.703 294.569H99.7593Z" fill="#FCBEB7"/>
<path d="M87.0889 262.198L69.9558 271.213L57.1768 262.198H87.0889Z" fill="#4A5EA3"/>
<path d="M125.015 234.146C123.955 234.854 122.682 235.267 121.312 235.267C117.627 235.267 114.64 232.279 114.64 228.593C114.64 227.578 114.867 226.616 115.272 225.754C119.766 226.553 123.558 229.816 125.015 234.146Z" fill="#4A5EA3"/>
<path d="M39.8043 209.108L35.3786 217.403C34.0753 219.846 34.0214 222.764 35.2338 225.253L35.6143 226.034L39.0553 211.769C39.2717 210.87 39.5227 209.982 39.8043 209.108Z" fill="#FCBEB7"/>
<path d="M53.7125 260.028C53.7994 260.005 53.8863 259.982 53.9724 259.957C56.534 259.221 58.8188 257.669 60.4536 255.493L71.4153 240.902L70.5544 211.238L81.603 213.644L85.9852 199.818L56.8534 188.328C48.7173 192.864 42.6431 200.307 39.8048 209.108C39.5232 209.981 39.2721 210.869 39.0557 211.768L35.6148 226.033L27.1753 261.021L50.8589 260.435C51.8324 260.411 52.789 260.272 53.7125 260.028Z" fill="#89AEFF"/>
<path d="M70.7036 216.405L56.2407 207.302L70.554 211.244L70.7036 216.405Z" fill="#4A62D3"/>
<path d="M31.4936 299.169L26.2948 294.096C25.2803 293.106 23.701 292.987 22.5489 293.812L0.265998 309.788C-0.0204127 309.993 -0.0855355 310.391 0.119618 310.677L1.09792 312.042C1.61523 312.764 2.45433 313.184 3.34252 313.168L12.2904 312.995L31.4936 299.169Z" fill="#2F3D6C"/>
<path d="M31.4932 312.994H12.29L31.4932 299.169V312.994Z" fill="#FCBEB7"/>
<path d="M94.8288 288.54L53.9727 259.957C53.8866 259.981 53.7997 260.006 53.7128 260.028C52.7892 260.272 51.8326 260.411 50.8584 260.435L27.1748 261.021C27.1748 271.203 33.29 280.388 42.6828 284.316L66.7357 294.374L31.4935 299.167V312.993H87.1239C100.267 312.994 105.598 296.074 94.8288 288.54Z" fill="#6277D7"/>
<path d="M96.8677 308.879C94.9811 307.7 93.7261 305.605 93.7261 303.216C93.7261 299.571 96.6497 296.608 100.28 296.544C101.244 300.921 99.9201 305.626 96.8677 308.879Z" fill="#4A5EA3"/>
<path d="M145.348 169.707L136.953 166.919C136.455 166.753 135.912 166.799 135.449 167.046L130.258 169.812L129.084 170.068C128.645 170.163 128.283 170.47 128.117 170.886L126.074 175.998L91.2686 201.715L85.9852 199.82L81.603 213.646L91.8172 215.756C94.1898 216.246 96.6492 215.505 98.3564 213.786L131.031 180.888L137.03 177.36C137.583 177.035 137.932 176.451 137.956 175.81L137.98 175.174L138.369 174.799C138.778 174.405 138.986 173.846 138.937 173.28L138.89 172.751C139.327 172.325 139.529 171.713 139.433 171.11L139.349 170.579L145.008 171.241C145.362 171.283 145.7 171.081 145.832 170.749C145.999 170.326 145.778 169.85 145.348 169.707Z" fill="#FCBEB7"/>
<path d="M98.9409 213.195L98.3553 213.784C96.6481 215.503 94.1887 216.244 91.8161 215.754L91.3374 215.655V215.654C91.6142 213.479 93.4702 211.799 95.7197 211.799C96.99 211.8 98.1356 212.336 98.9409 213.195Z" fill="#F9AFAB"/>
<path d="M289.017 296.327L287.724 301.7L273.626 306.127L275.654 296.327H289.017Z" fill="#FCBEB7"/>
<path d="M336.514 296.327L336.13 302.964L337.009 303.288L337.588 306.13L323.503 301.7L323.151 296.327H336.514Z" fill="#FCBEB7"/>
<path d="M262.754 308.215L274.215 303.288L273.627 306.128L287.725 301.701V305.741C287.725 307.161 286.982 308.449 285.814 309.173L284.601 312.639C284.496 312.938 284.214 313.14 283.896 313.14C283.483 313.14 283.149 312.805 283.149 312.393V310.138L273.514 313.14H263.767C262.35 313.14 261.201 311.991 261.201 310.573C261.201 309.546 261.812 308.62 262.754 308.215Z" fill="#2F3D6C"/>
<path d="M323.492 305.701L323.503 301.661L337.588 306.13L337.009 303.288L348.455 308.248C349.395 308.656 350.004 309.585 350 310.61C349.997 312.028 348.844 313.173 347.427 313.169L337.68 313.14L327.717 310.005L327.71 312.365C327.708 312.778 327.373 313.111 326.961 313.109C326.644 313.109 326.361 312.907 326.257 312.607L324.942 308.812C324.04 308.059 323.488 306.929 323.492 305.701Z" fill="#2F3D6C"/>
<path d="M295.577 86.5944V108.832H306.912H317.339H318.059H332.178C332.178 108.832 332.178 91.7557 332.178 81.8296C332.178 71.152 323.585 69.295 323.585 69.295C323.585 69.295 320.461 64.2783 311.37 64.2783C300.432 64.2783 293.137 70.9794 293.137 79.2511C293.137 83.0497 294.682 85.4958 295.577 86.5944ZM295.762 82.9043C297.145 82.5918 301.034 79.1656 301.034 75.6518C304.078 80.6877 313.382 87.9339 327.217 83.5109V83.5118C327.26 83.5057 327.303 83.5017 327.349 83.5017C330.64 83.5017 330.869 92.655 325.331 93.1839C325.249 93.4526 325.165 93.7082 325.08 93.9469V108.832H312.587V103.046C311.716 103.292 310.882 103.433 310.117 103.433C304.949 103.433 295.966 95.4612 295.762 82.9043Z" fill="#311643"/>
<path d="M312.585 103.046C311.714 103.291 310.88 103.432 310.115 103.432C304.948 103.432 295.965 95.461 295.761 82.9034C297.144 82.5908 301.033 79.1647 301.033 75.6509C304.077 80.6867 313.381 87.9329 327.216 83.5099V83.5107C327.259 83.5045 327.302 83.5007 327.348 83.5007C330.639 83.5007 330.868 92.654 325.33 93.183C325.248 93.4516 325.164 93.7072 325.079 93.9459V103.959L334.863 108.531V120.647H302.349V107.482L312.586 104.363L312.585 103.046Z" fill="#FCBEB7"/>
<path d="M302.348 120.649V107.484L312.585 104.365V103.047C315.48 102.23 318.77 100.251 321.186 98.4053L302.348 120.649Z" fill="#F9AFAB"/>
<path d="M319.258 93.5056C321.14 93.5056 322.666 91.9796 322.666 90.0973C322.666 88.2149 321.14 86.689 319.258 86.689C317.376 86.689 315.85 88.2149 315.85 90.0973C315.85 91.9796 317.376 93.5056 319.258 93.5056Z" fill="#F49795"/>
<path d="M296.198 87.2681C296.63 89.557 297.355 91.6441 298.269 93.5011C300.072 93.4126 301.505 91.9221 301.505 90.0975C301.505 88.2151 299.979 86.6899 298.098 86.6899C297.395 86.6899 296.742 86.9024 296.198 87.2681Z" fill="#F49795"/>
<path d="M297.135 84.5616C297.135 87.2246 299.302 89.3911 301.965 89.3911C304.566 89.3911 306.693 87.3223 306.79 84.7439C308.244 83.9194 309.519 84.5077 309.92 84.7387C310.014 87.3201 312.141 89.3911 314.745 89.3911C317.408 89.3911 319.574 87.2246 319.574 84.5616C319.574 81.8985 317.408 79.7319 314.745 79.7319C312.257 79.7319 310.203 81.6229 309.944 84.0426C309.313 83.7532 308.12 83.4082 306.767 84.0449C306.508 81.6236 304.453 79.7319 301.965 79.7319C299.302 79.7319 297.135 81.8985 297.135 84.5616ZM310.548 84.5616C310.548 82.2465 312.431 80.364 314.746 80.364C317.06 80.364 318.944 82.2473 318.944 84.5616C318.944 86.8759 317.061 88.7597 314.746 88.7597C312.431 88.7597 310.548 86.8759 310.548 84.5616ZM297.767 84.5616C297.767 82.2465 299.65 80.364 301.965 80.364C304.28 80.364 306.164 82.2473 306.164 84.5616C306.164 86.8759 304.281 88.7597 301.965 88.7597C299.65 88.7597 297.767 86.8759 297.767 84.5616Z" fill="white"/>
<path d="M301.961 85.8945C302.341 85.8945 302.65 85.5857 302.65 85.2054V83.9181C302.65 83.5377 302.341 83.229 301.961 83.229C301.581 83.229 301.272 83.5377 301.272 83.9181V85.2054C301.272 85.5865 301.581 85.8945 301.961 85.8945Z" fill="#311643"/>
<path d="M314.535 85.8945C314.916 85.8945 315.224 85.5857 315.224 85.2054V83.9181C315.224 83.5377 314.916 83.229 314.535 83.229C314.154 83.229 313.846 83.5377 313.846 83.9181V85.2054C313.846 85.5865 314.154 85.8945 314.535 85.8945Z" fill="#311643"/>
<path d="M309.614 95.836C310.844 95.836 311.682 95.3734 312.189 94.9522C312.829 94.421 313.095 93.8414 313.106 93.8168C313.178 93.6574 313.107 93.4701 312.947 93.3985C312.789 93.3269 312.603 93.3978 312.53 93.5557C312.494 93.6342 311.62 95.4658 309.082 95.1725C308.908 95.1525 308.752 95.2763 308.732 95.4496C308.712 95.6228 308.836 95.7799 309.01 95.7999C309.22 95.8253 309.422 95.836 309.614 95.836Z" fill="#311643"/>
<path d="M334.383 161.197L339.583 183.216C341.084 189.575 341.676 196.115 341.34 202.639L336.514 296.326H323.151L317.446 199.096L289.017 296.326H275.654L299.182 161.196H334.383V161.197Z" fill="#6277D7"/>
<path d="M316.701 114.693C314.328 114.693 312.43 112.408 311.151 110.093H324.682C322.619 112.401 319.792 114.693 316.701 114.693Z" fill="white"/>
<path d="M291.383 114.869C293.469 111.623 296.641 109.223 300.332 108.099L309.3 105.368C309.3 105.745 309.956 107.932 311.151 110.093C312.43 112.407 314.328 114.692 316.701 114.692C319.792 114.692 322.618 112.401 324.682 110.093C326.776 107.751 328.084 105.392 328.084 105.392L336.27 109.185C339.982 110.904 342.642 114.303 343.42 118.319L348.874 146.487H337.781L336.169 135.864L334.383 161.197H299.182L295.984 134.234L287.599 141.775L280.643 131.587L291.383 114.869Z" fill="#FE9ECC"/>
<path d="M280.643 131.587L290.411 139.246L287.598 141.775L280.643 131.587Z" fill="#FF78BA"/>
<path d="M295.378 235.961C298.911 235.961 301.774 233.098 301.774 229.565C301.774 226.033 298.911 223.169 295.378 223.169C291.846 223.169 288.982 226.033 288.982 229.565C288.982 233.098 291.846 235.961 295.378 235.961Z" fill="#4A5EA3"/>
<path d="M328.889 235.961C332.421 235.961 335.285 233.098 335.285 229.565C335.285 226.033 332.421 223.169 328.889 223.169C325.356 223.169 322.493 226.033 322.493 229.565C322.493 233.098 325.356 235.961 328.889 235.961Z" fill="#4A5EA3"/>
<path d="M242.438 105.102L253.979 101.147C255.129 100.779 256.382 100.917 257.424 101.525L261.907 104.143L287.599 141.776L284.069 145.001C281.15 147.667 276.492 146.8 274.728 143.263L257.817 109.364L253.616 109.879C252.981 109.957 252.338 109.839 251.774 109.54L250.291 108.755C249.599 108.389 249.068 107.775 248.806 107.037L248.502 106.18L242.87 106.942C242.411 107.012 241.968 106.739 241.826 106.297C241.664 105.797 241.939 105.262 242.438 105.102Z" fill="#FCBEB7"/>
<path d="M333.111 185.796L335.702 183.466L337.781 146.487H348.875L341.946 184.717L341.953 193.398C341.888 194.576 341.373 195.685 340.514 196.494L339.439 197.508C338.124 198.748 336.365 199.407 334.56 199.337L333.019 199.278C332.472 199.257 332.149 198.657 332.431 198.189L334.669 194.486L334.479 187.573L333.364 191.604C333.176 192.284 332.493 192.701 331.802 192.559V188.735C331.801 187.614 332.277 186.545 333.111 185.796Z" fill="#FCBEB7"/>
<path d="M336.813 112.777C336.813 115.01 338.623 116.821 340.856 116.821C341.582 116.821 342.263 116.629 342.852 116.295C341.9 113.739 340.149 111.552 337.859 110.063C337.209 110.781 336.813 111.733 336.813 112.777Z" fill="#FF78BA"/>
<path d="M334.383 161.197H299.182L298.685 164.055L334.606 162.14L334.383 161.197Z" fill="#4A5EA3"/>
<path d="M275.531 144.48C277.575 146.877 281.255 147.3 283.799 145.232C283.57 143.109 281.773 141.456 279.59 141.456C277.672 141.457 276.052 142.732 275.531 144.48Z" fill="#F9AFAB"/>
<path d="M167.553 282.882C174.091 270.912 153.451 265.283 148.476 270.031C143.5 274.779 159.995 296.718 167.553 282.882Z" fill="#FE9ECC"/>
<path d="M176.23 279.228C189.061 279.228 183.254 256.279 177.768 256.279C170.89 256.279 161.406 279.228 176.23 279.228Z" fill="#FE9ECC"/>
<path d="M186.119 287.553C196.696 296.164 205.994 276.897 202.233 271.138C198.471 265.38 173.892 277.6 186.119 287.553Z" fill="#FE9ECC"/>
<path d="M172.629 293.251C170.844 289.119 168.23 285.27 164.862 281.81C159.131 275.925 153.104 273.165 153.043 273.138C152.864 273.057 152.653 273.136 152.572 273.315C152.491 273.495 152.571 273.706 152.749 273.787C152.808 273.814 158.732 276.53 164.368 282.326C167.671 285.722 170.232 289.498 171.98 293.548C172.178 294.008 172.363 294.472 172.54 294.939H173.302C173.093 294.371 172.87 293.808 172.629 293.251Z" fill="#FF78BA"/>
<path d="M177.449 260.985C177.472 260.79 177.332 260.613 177.136 260.589C176.94 260.565 176.764 260.705 176.74 260.901C176.717 261.095 174.918 276.474 175.01 294.938H175.723C175.631 276.523 177.425 261.18 177.449 260.985Z" fill="#FF78BA"/>
<path d="M198.669 273.716C198.559 273.552 198.338 273.508 198.174 273.618C198.123 273.652 192.977 277.114 187.682 282.807C184.799 285.908 181.521 290.066 179.119 294.938H179.916C182.264 290.281 185.414 286.295 188.193 283.305C193.432 277.669 198.52 274.245 198.571 274.211C198.734 274.101 198.778 273.88 198.669 273.716Z" fill="#FF78BA"/>
<path d="M175.724 294.938H175.011H173.304H172.541H162.589C162.206 294.938 161.935 295.312 162.053 295.676L162.682 297.604L162.999 298.579L167.547 312.533C167.671 312.912 168.024 313.169 168.422 313.169H184.816C185.214 313.169 185.567 312.912 185.69 312.533L190.239 298.579L190.557 297.604L191.185 295.676C191.304 295.312 191.032 294.938 190.65 294.938H179.916H179.119H175.724Z" fill="#D2DCFF"/>
<path d="M190.557 297.603L190.24 298.579H162.999L162.682 297.603H190.557Z" fill="#AEC3FF"/>
<defs>
<filter id="filter0_d_2_25365" x="158.668" y="21.167" width="158.223" height="159.111" filterUnits="userSpaceOnUse" color-interpolation-filters="sRGB">
<feFlood flood-opacity="0" result="BackgroundImageFix"/>
<feColorMatrix in="SourceAlpha" type="matrix" values="0 0 0 0 0 0 0 0 0 0 0 0 0 0 0 0 0 0 127 0" result="hardAlpha"/>
<feOffset dx="4" dy="4"/>
<feGaussianBlur stdDeviation="24"/>
<feComposite in2="hardAlpha" operator="out"/>
<feColorMatrix type="matrix" values="0 0 0 0 0 0 0 0 0 0 0 0 0 0 0 0 0 0 0.16 0"/>
<feBlend mode="normal" in2="BackgroundImageFix" result="effect1_dropShadow_2_25365"/>
<feBlend mode="normal" in="SourceGraphic" in2="effect1_dropShadow_2_25365" result="shape"/>
</filter>
<filter id="filter1_d_2_25365" x="109" y="141.5" width="159.111" height="159.111" filterUnits="userSpaceOnUse" color-interpolation-filters="sRGB">
<feFlood flood-opacity="0" result="BackgroundImageFix"/>
<feColorMatrix in="SourceAlpha" type="matrix" values="0 0 0 0 0 0 0 0 0 0 0 0 0 0 0 0 0 0 127 0" result="hardAlpha"/>
<feOffset dx="4" dy="4"/>
<feGaussianBlur stdDeviation="24"/>
<feComposite in2="hardAlpha" operator="out"/>
<feColorMatrix type="matrix" values="0 0 0 0 0 0 0 0 0 0 0 0 0 0 0 0 0 0 0.16 0"/>
<feBlend mode="normal" in2="BackgroundImageFix" result="effect1_dropShadow_2_25365"/>
<feBlend mode="normal" in="SourceGraphic" in2="effect1_dropShadow_2_25365" result="shape"/>
</filter>
<filter id="filter2_d_2_25365" x="87.5562" y="0.722168" width="159.111" height="158.223" filterUnits="userSpaceOnUse" color-interpolation-filters="sRGB">
<feFlood flood-opacity="0" result="BackgroundImageFix"/>
<feColorMatrix in="SourceAlpha" type="matrix" values="0 0 0 0 0 0 0 0 0 0 0 0 0 0 0 0 0 0 127 0" result="hardAlpha"/>
<feOffset dx="4" dy="4"/>
<feGaussianBlur stdDeviation="24"/>
<feComposite in2="hardAlpha" operator="out"/>
<feColorMatrix type="matrix" values="0 0 0 0 0 0 0 0 0 0 0 0 0 0 0 0 0 0 0.16 0"/>
<feBlend mode="normal" in2="BackgroundImageFix" result="effect1_dropShadow_2_25365"/>
<feBlend mode="normal" in="SourceGraphic" in2="effect1_dropShadow_2_25365" result="shape"/>
</filter>
<filter id="filter3_d_2_25365" x="16.4448" y="22.0557" width="159.111" height="158.223" filterUnits="userSpaceOnUse" color-interpolation-filters="sRGB">
<feFlood flood-opacity="0" result="BackgroundImageFix"/>
<feColorMatrix in="SourceAlpha" type="matrix" values="0 0 0 0 0 0 0 0 0 0 0 0 0 0 0 0 0 0 127 0" result="hardAlpha"/>
<feOffset dx="4" dy="4"/>
<feGaussianBlur stdDeviation="24"/>
<feComposite in2="hardAlpha" operator="out"/>
<feColorMatrix type="matrix" values="0 0 0 0 0 0 0 0 0 0 0 0 0 0 0 0 0 0 0.16 0"/>
<feBlend mode="normal" in2="BackgroundImageFix" result="effect1_dropShadow_2_25365"/>
<feBlend mode="normal" in="SourceGraphic" in2="effect1_dropShadow_2_25365" result="shape"/>
</filter>
<filter id="filter4_d_2_25365" x="180" y="100" width="158.223" height="159.111" filterUnits="userSpaceOnUse" color-interpolation-filters="sRGB">
<feFlood flood-opacity="0" result="BackgroundImageFix"/>
<feColorMatrix in="SourceAlpha" type="matrix" values="0 0 0 0 0 0 0 0 0 0 0 0 0 0 0 0 0 0 127 0" result="hardAlpha"/>
<feOffset dx="4" dy="4"/>
<feGaussianBlur stdDeviation="24"/>
<feComposite in2="hardAlpha" operator="out"/>
<feColorMatrix type="matrix" values="0 0 0 0 0 0 0 0 0 0 0 0 0 0 0 0 0 0 0.16 0"/>
<feBlend mode="normal" in2="BackgroundImageFix" result="effect1_dropShadow_2_25365"/>
<feBlend mode="normal" in="SourceGraphic" in2="effect1_dropShadow_2_25365" result="shape"/>
</filter>
<filter id="filter5_d_2_25365" x="92.001" y="71.834" width="158.223" height="159.111" filterUnits="userSpaceOnUse" color-interpolation-filters="sRGB">
<feFlood flood-opacity="0" result="BackgroundImageFix"/>
<feColorMatrix in="SourceAlpha" type="matrix" values="0 0 0 0 0 0 0 0 0 0 0 0 0 0 0 0 0 0 127 0" result="hardAlpha"/>
<feOffset dx="4" dy="4"/>
<feGaussianBlur stdDeviation="24"/>
<feComposite in2="hardAlpha" operator="out"/>
<feColorMatrix type="matrix" values="0 0 0 0 0 0 0 0 0 0 0 0 0 0 0 0 0 0 0.16 0"/>
<feBlend mode="normal" in2="BackgroundImageFix" result="effect1_dropShadow_2_25365"/>
<feBlend mode="normal" in="SourceGraphic" in2="effect1_dropShadow_2_25365" result="shape"/>
</filter>
</defs>
</svg>
