<svg width="24" height="24" viewBox="0 0 24 24" fill="none" xmlns="http://www.w3.org/2000/svg">
<path d="M23.0312 9.79668H22.125V9.75H12V14.25H18.3579C17.4304 16.8696 14.9379 18.75 12 18.75C8.27231 18.75 5.25 15.7277 5.25 12C5.25 8.27231 8.27231 5.25 12 5.25C13.7207 5.25 15.2861 5.89912 16.4781 6.95944L19.6601 3.77737C17.6509 1.90481 14.9632 0.75 12 0.75C5.78719 0.75 0.75 5.78719 0.75 12C0.75 18.2128 5.78719 23.25 12 23.25C18.2128 23.25 23.25 18.2128 23.25 12C23.25 11.2457 23.1724 10.5094 23.0312 9.79668Z" fill="#FFC107"/>
<path d="M2.04688 6.76369L5.74306 9.47437C6.74318 6.99825 9.16531 5.25 11.9997 5.25C13.7204 5.25 15.2859 5.89912 16.4778 6.95944L19.6599 3.77737C17.6506 1.90481 14.963 0.75 11.9997 0.75C7.67862 0.75 3.93125 3.18956 2.04688 6.76369Z" fill="#FF3D00"/>
<path d="M11.9997 23.2499C14.9056 23.2499 17.5459 22.1378 19.5422 20.3294L16.0604 17.383C14.8929 18.2709 13.4664 18.7511 11.9997 18.7499C9.07356 18.7499 6.589 16.8841 5.653 14.2803L1.98438 17.1068C3.84625 20.7501 7.62737 23.2499 11.9997 23.2499Z" fill="#4CAF50"/>
<path d="M23.0307 9.79669H22.1245V9.75H11.9995V14.25H18.3574C17.9138 15.4967 17.1145 16.5862 16.0585 17.3837L16.0602 17.3826L19.5421 20.3289C19.2957 20.5528 23.2495 17.625 23.2495 12C23.2495 11.2457 23.1719 10.5094 23.0307 9.79669Z" fill="#1976D2"/>
</svg>
