<svg width="40" height="28" viewBox="0 0 40 28" fill="none" xmlns="http://www.w3.org/2000/svg">
<path d="M26.8527 20.5681L26.4966 20.7117C26.2556 20.7117 26.0732 20.6486 25.9538 20.5181C25.8343 20.3854 25.7236 20.1091 25.6063 19.6827L22.1778 6.53333H15.4771L12.3353 19.6827C12.2267 20.1461 12.1029 20.4507 11.9596 20.5877L11.4537 20.8009C11.0216 20.8009 10.6959 20.4289 10.4896 19.6827L6.14048 6.53333H0L5.75833 23.6901C6.10791 24.7061 6.4879 25.5198 6.89176 26.1225C7.2978 26.7251 7.85148 27.1863 8.55282 27.5148C9.26067 27.8368 10.1487 28 11.2344 28C14.0593 28 15.8615 26.5249 16.6301 23.5705L18.9556 14.6483L21.394 23.4269C21.6611 24.3472 22.028 25.1478 22.4862 25.8244C22.9443 26.4988 23.5197 27.034 24.2102 27.4213C24.9072 27.8064 25.7236 28 26.6551 28C27.2913 28 27.96 27.8173 28.6636 27.4539C29.3649 27.0928 30.0185 26.5576 30.6221 25.844C31.2235 25.1326 31.6882 24.308 32.0096 23.366L40 0H33.9963L27.1914 19.885C27.0676 20.2527 26.9395 20.4724 26.8527 20.5681Z" fill="white"/>
</svg>
