<svg width="20" height="20" viewBox="0 0 20 20" fill="none" xmlns="http://www.w3.org/2000/svg">
<path d="M18.299 11.4324V17.5816H14.734V11.8441C14.734 10.4024 14.2182 9.41907 12.9282 9.41907C11.9432 9.41907 11.3565 10.0824 11.099 10.7232C11.0048 10.9524 10.9807 11.2716 10.9807 11.5924V17.5816H7.414C7.414 17.5816 7.46234 7.8649 7.414 6.8574H10.9807V8.3774L10.9573 8.4124H10.9807V8.3774C11.454 7.64823 12.2998 6.60573 14.194 6.60573C16.5398 6.60573 18.299 8.13907 18.299 11.4324ZM3.684 1.68823C2.46484 1.68823 1.6665 2.48823 1.6665 3.54073C1.6665 4.5699 2.4415 5.39407 3.63734 5.39407H3.66067C4.90484 5.39407 5.67734 4.5699 5.67734 3.54073C5.65567 2.48823 4.90567 1.68823 3.68484 1.68823H3.684ZM1.87817 17.5816H5.44317V6.8574H1.87817V17.5816Z" fill="white"/>
</svg>
