<svg width="42" height="30" viewBox="0 0 42 30" fill="none" xmlns="http://www.w3.org/2000/svg">
<path d="M28.1953 22.0373L27.8214 22.1911C27.5683 22.1911 27.3768 22.1235 27.2514 21.9837C27.126 21.8415 27.0098 21.5455 26.8867 21.0886L23.2867 7H16.251L12.952 21.0886C12.838 21.5851 12.7081 21.9114 12.5576 22.0583L12.0264 22.2867C11.5727 22.2867 11.2307 21.8881 11.0141 21.0886L6.44751 7H0L6.04625 25.3823C6.41331 26.4709 6.81229 27.3427 7.23635 27.9883C7.66269 28.634 8.24406 29.1282 8.98046 29.4802C9.7237 29.8252 10.6562 30 11.7961 30C14.7622 30 16.6545 28.4196 17.4616 25.2541L19.9034 15.6946L22.4637 25.1002C22.7441 26.0862 23.1294 26.9441 23.6105 27.669C24.0915 28.3916 24.6957 28.965 25.4207 29.38C26.1525 29.7925 27.0098 30 27.9878 30C28.6558 30 29.3581 29.8042 30.0967 29.4149C30.8331 29.028 31.5194 28.4545 32.1532 27.69C32.7847 26.9277 33.2726 26.0443 33.61 25.035L42 0H35.6961L28.551 21.3054C28.421 21.6993 28.2865 21.9347 28.1953 22.0373Z" fill="url(#paint0_linear_2_74)"/>
<defs>
<linearGradient id="paint0_linear_2_74" x1="21" y1="0" x2="21" y2="30" gradientUnits="userSpaceOnUse">
<stop stop-color="#4660F1"/>
<stop offset="1" stop-color="#761DE3"/>
</linearGradient>
</defs>
</svg>
