<svg width="20" height="20" viewBox="0 0 20 20" fill="none" xmlns="http://www.w3.org/2000/svg">
<path d="M18.3332 4.92239C17.7085 5.19521 17.0469 5.37409 16.3698 5.45323C17.0805 5.03592 17.6149 4.37415 17.8732 3.59156C17.1998 3.9835 16.4655 4.25956 15.7007 4.40823C15.3786 4.0709 14.9912 3.80272 14.5621 3.62004C14.133 3.43737 13.6712 3.34403 13.2048 3.34573C11.3165 3.34573 9.78567 4.85406 9.78567 6.71239C9.78567 6.97573 9.81567 7.23323 9.874 7.47906C8.51948 7.41464 7.19327 7.06857 5.97998 6.46292C4.76669 5.85728 3.69297 5.00538 2.82734 3.96156C2.52386 4.47356 2.36435 5.05804 2.36567 5.65323C2.36625 6.20986 2.50553 6.75758 2.77091 7.24689C3.0363 7.73619 3.41942 8.15165 3.88567 8.45573C3.34357 8.43823 2.81319 8.2935 2.33734 8.03323V8.07489C2.33734 9.70656 3.5165 11.0674 5.079 11.3774C4.78535 11.4553 4.48282 11.4948 4.179 11.4949C3.95817 11.4949 3.744 11.4741 3.53484 11.4324C3.75824 12.1057 4.18576 12.6927 4.75802 13.1118C5.33028 13.531 6.01887 13.7616 6.72817 13.7716C5.51156 14.7087 4.01802 15.2149 2.48234 15.2107C2.20567 15.2107 1.934 15.1941 1.6665 15.1641C3.23422 16.1563 5.052 16.6818 6.90734 16.6791C13.1965 16.6791 16.6348 11.5482 16.6348 7.09906L16.6232 6.66323C17.2939 6.19128 17.8733 5.60143 18.3332 4.92239Z" fill="white"/>
</svg>
