<svg width="20" height="20" viewBox="0 0 20 20" fill="none" xmlns="http://www.w3.org/2000/svg">
<path d="M14.8432 4.18077H5.12067C3.21234 4.18077 1.6665 5.70993 1.6665 7.5966V12.4033C1.6665 14.2899 3.21317 15.8199 5.12067 15.8199H14.8432C16.7515 15.8199 18.2973 14.2899 18.2973 12.4033V7.5966C18.2973 5.70993 16.7507 4.17993 14.8432 4.17993V4.18077ZM12.5073 10.2333L7.95984 12.3791C7.9321 12.3925 7.90144 12.3986 7.8707 12.3969C7.83996 12.3952 7.81015 12.3858 7.78403 12.3695C7.75792 12.3532 7.73635 12.3305 7.72134 12.3037C7.70633 12.2768 7.69836 12.2465 7.69817 12.2158V7.7916C7.69873 7.76066 7.7071 7.73036 7.72252 7.70354C7.73794 7.67671 7.7599 7.65422 7.78635 7.63816C7.81281 7.62211 7.84289 7.61301 7.87381 7.61172C7.90473 7.61042 7.93547 7.61698 7.96317 7.63076L12.5115 9.90993C12.5418 9.92504 12.5672 9.94839 12.5848 9.97729C12.6025 10.0062 12.6116 10.0395 12.6112 10.0733C12.6107 10.1072 12.6007 10.1402 12.5824 10.1687C12.564 10.1971 12.538 10.2198 12.5073 10.2341V10.2333Z" fill="white"/>
</svg>
